

<svg version="1.0" xmlns="http://www.w3.org/2000/svg"
 width="406" height="369" viewBox="0 0 408.000000 246.000000"
 preserveAspectRatio="xMidYMid meet">
<defs>
<linearGradient id="paint0_linear" x1="205.549" y1="20.0169" x2="204.338" y2="342.461" gradientUnits="userSpaceOnUse">
<stop stop-color="#1595B6"/>
<stop offset="1" stop-color="#1595B6" stop-opacity="0"/>

  </linearGradient>
</defs>
<g transform="translate(0.000000,246.000000) scale(0.100000,-0.100000)"

 >
<path d="M3547 2440 c-203 -34 -395 -144 -519 -297 -110 -135 -181 -270 -257
-488 -40 -114 -141 -498 -141 -536 0 -14 -11 -19 -47 -25 -88 -13 -712 17
-743 36 -11 7 36 158 179 575 l61 180 163 0 c147 0 167 3 217 23 114 48 150
94 150 192 0 47 -4 64 -20 80 -21 21 -84 28 -95 10 -3 -5 6 -31 20 -59 21 -40
25 -57 19 -88 -17 -89 -112 -134 -282 -134 -88 0 -152 7 -152 17 0 14 53 117
79 152 41 56 85 82 139 82 37 0 49 -6 91 -45 26 -25 53 -45 58 -45 19 0 24 32
8 56 -25 39 -61 56 -129 61 -121 10 -231 -45 -320 -161 -25 -31 -46 -62 -48
-68 -4 -12 -94 7 -191 41 l-48 16 -4 97 c-10 209 -98 308 -240 268 -41 -12
-115 -63 -115 -80 0 -4 16 -11 35 -14 47 -9 75 -47 75 -103 l0 -43 24 15 c56
37 75 148 34 193 l-23 25 35 -7 c77 -14 120 -106 120 -257 l0 -76 -117 34
c-241 70 -351 88 -538 88 -194 0 -273 -17 -398 -82 -231 -121 -328 -388 -221
-603 69 -136 203 -217 394 -235 203 -20 432 99 507 262 39 84 39 180 0 246
-71 121 -260 181 -415 131 -87 -28 -152 -99 -152 -164 0 -34 17 -14 24 29 7
48 57 95 118 112 24 6 79 12 123 12 67 1 90 -4 142 -27 77 -35 149 -107 159
-161 41 -222 -220 -434 -506 -410 -174 15 -302 91 -358 213 -21 47 -24 65 -20
136 3 68 9 91 38 145 109 204 332 311 649 311 92 0 300 -29 461 -64 l105 -22
-3 -50 c-8 -135 -78 -464 -144 -671 l-33 -102 -200 -5 c-549 -11 -983 -153
-1172 -384 -200 -245 -138 -533 145 -680 297 -155 718 -102 1001 125 166 132
340 381 449 641 26 61 11 59 232 36 179 -19 502 -23 575 -7 27 6 52 9 54 7 2
-2 -10 -75 -28 -162 -92 -451 -137 -554 -250 -569 -42 -6 -66 4 -123 50 -40
32 -58 29 -58 -8 0 -28 36 -59 87 -76 118 -39 306 70 375 218 46 97 95 269
139 487 22 111 42 206 44 212 2 6 34 26 71 43 37 17 87 47 110 66 71 59 129
169 149 284 6 37 5 42 -10 39 -12 -2 -24 -26 -39 -78 -37 -127 -88 -188 -200
-241 -33 -16 -61 -27 -63 -25 -5 4 51 263 88 409 71 281 144 456 249 595 98
130 194 203 327 249 141 48 356 33 469 -32 86 -50 128 -127 104 -189 -6 -16
-8 -31 -5 -34 11 -11 19 10 23 65 3 37 11 62 21 70 14 10 11 16 -23 52 -103
106 -295 153 -489 121z m-1628 -520 c10 0 20 -3 23 -6 3 -3 -11 -42 -32 -87
-34 -72 -108 -292 -198 -587 l-29 -95 -69 4 c-38 2 -70 4 -71 5 -1 0 16 60 38
131 80 263 149 561 149 645 0 15 2 29 5 32 3 3 42 -6 86 -19 45 -12 89 -23 98
-23z m-547 -806 l106 -7 -18 -51 -17 -51 -189 -6 c-199 -6 -279 -19 -379 -64
-70 -31 -131 -79 -151 -116 -29 -58 -3 -169 40 -169 7 0 33 22 60 49 l48 49
-30 29 c-17 15 -34 39 -37 54 -6 22 -1 27 42 47 26 13 75 29 108 37 87 21 360
40 417 29 l46 -9 -67 -165 c-141 -345 -256 -522 -385 -590 -52 -28 -63 -55
-18 -44 119 29 227 164 371 466 38 79 86 187 107 241 l39 98 35 -5 c19 -3 52
-6 73 -6 22 0 37 -5 37 -12 0 -24 -64 -186 -115 -293 -190 -397 -446 -574
-830 -575 -172 0 -294 42 -389 135 -131 127 -143 353 -27 532 54 84 104 137
177 189 217 155 564 231 946 208z m259 -22 l36 -7 -14 -49 -14 -48 -69 4 c-38
2 -71 6 -75 9 -3 3 3 27 12 52 16 44 20 47 53 46 19 0 51 -3 71 -7z m429 -42
c115 -11 281 -20 378 -20 l174 0 -7 -32 c-4 -18 -10 -36 -14 -40 -17 -18 -175
-30 -331 -24 -155 5 -480 33 -489 42 -2 2 4 24 13 49 21 54 -1 52 276 25z"/>
</g>
</svg>

