<?xml version="1.0" standalone="no"?>
<!DOCTYPE svg PUBLIC "-//W3C//DTD SVG 20010904//EN"
 "http://www.w3.org/TR/2001/REC-SVG-20010904/DTD/svg10.dtd">
<svg version="1.0" xmlns="http://www.w3.org/2000/svg"
 width="200.000000pt" height="200.000000pt" viewBox="0 0 200.000000 200.000000"
 preserveAspectRatio="xMidYMid meet">

<g transform="translate(0.000000,200.000000) scale(0.100000,-0.100000)"
fill="#000000" stroke="none">
<path d="M533 1789 c-48 -23 -89 -67 -110 -116 -10 -26 -13 -158 -13 -675 0
-600 2 -646 19 -683 70 -154 283 -167 378 -23 27 41 28 45 31 213 3 154 1 173
-14 179 -36 14 -43 -9 -46 -174 -3 -142 -5 -162 -24 -186 -38 -51 -71 -69
-129 -69 -60 0 -95 20 -133 75 l-22 34 2 642 c3 631 3 643 24 670 38 51 71 69
129 69 60 0 95 -20 133 -75 22 -33 22 -34 22 -450 0 -357 2 -419 15 -430 8 -7
22 -10 30 -6 12 4 15 25 15 98 0 121 11 158 61 203 40 36 43 37 105 33 54 -3
68 -8 95 -33 17 -17 36 -39 42 -50 8 -14 14 -128 17 -361 l5 -341 28 -41 c80
-121 246 -137 341 -32 19 21 40 56 46 77 8 27 10 232 8 684 l-3 645 -28 42
c-80 121 -246 137 -341 32 -52 -58 -57 -89 -54 -330 l3 -215 25 0 25 0 5 227
c5 209 7 229 26 254 38 51 71 69 129 69 58 0 91 -18 129 -69 21 -27 21 -39 24
-670 l2 -642 -22 -34 c-38 -55 -73 -75 -133 -75 -58 0 -91 18 -129 69 -20 26
-21 44 -26 364 -6 377 -6 379 -80 445 -69 63 -185 70 -261 16 -15 -10 -30 -19
-33 -19 -3 0 -6 116 -6 258 0 229 -2 261 -19 297 -50 109 -183 156 -288 104z"/>
</g>
</svg>
